<svg xmlns="http://www.w3.org/2000/svg" viewBox="0 0 32 32"><g id="Layer_2" data-name="Layer 2"><g id="Layer_1-2" data-name="Layer 1"><path d="M32,12.72,26.61,3.6H22.74L20.61,0H11.33L9.2,3.6H5.46L0,12.84,1.87,16,0,19.17l5.42,9.17H9.16L11.33,32H20.6l2.16-3.66h3.87L32,19.26,30.07,16ZM26.05,4.55l4.83,8.17L29.51,15l-4.6-7.78H12l1.6-2.71H26.05Zm-2.66,14.5h0L20.6,23.77H11.45l-3-5.05h0L6.87,16l4.2-7.12.13-.23h0l.25-.42h9.16L25.19,16l-1.6,2.71ZM11.89,1h8.16L21.62,3.6H13.07L10.89,7.29h0l-.77,1.3L6.3,15.05,4.93,12.73l5.4-9.13h0ZM1.12,12.84l1.79-3L6,4.55H8.64l-4.55,7.7-.29.48L7.53,19l2.8,4.76H7.6L4.79,19,2.63,15.39l-.2-.34h0ZM6,27.39,1.12,19.17,2.43,17,7,24.74H20l-1.57,2.65H6ZM20,31.05H11.89l-1.6-2.71H19l2.14-3.62h0l3.15-5.34,1.44-2.44,1.31,2.21-5,8.44Zm9.11-8.87L28.06,24l-2,3.37H23.33l4.87-8.24L25.76,15h0l-4-6.83h2.62l6.53,11.05Z"/><polygon points="19.28 10.45 12.72 10.45 9.45 16 12.72 21.55 19.28 21.55 22.55 16 19.28 10.45"/></g></g></svg>