<svg xmlns="http://www.w3.org/2000/svg" viewBox="0 0 606.87 620.07"><g id="Layer_2" data-name="Layer 2"><g id="Layer_1-2" data-name="Layer 1"><path d="M606.87,246.48,504.61,69.78H431.28L390.89,0H215L174.57,69.78h-71L0,248.8l35.48,61.3L0,371.41l102.84,177.7h71l41.07,71H390.65l41.07-71h73.34L606.87,373.18l-36.66-63.35ZM494,88.2l91.6,158.28-26,45-87.21-150.7H228.12l30.4-52.54H494ZM443.66,369.1v0l-53,91.53H217.23l-56.65-97.88h0l-30.35-52.56,79.63-137.92,2.58-4.48h0l4.66-8.05h173.7l86.86,150.45-30.35,52.57ZM225.58,18.43H380.27L410,69.78H247.9l-41.42,71.55h0L192,166.43,119.45,291.71l-26-45,102.43-177h0ZM21.29,248.8l34-58.74,59-101.86H163.9L77.59,237.34l-5.45,9.41L142.78,368.8,196,460.9H144L90.76,368.83,49.88,298.2l-3.76-6.49h0Zm92.18,281.88L21.29,371.41,46.12,328.5l87.3,150.83H379.86l-29.72,51.35H113.47Zm266.56,71H225.5l-30.4-52.53H360.77l40.53-70h.15l59.79-103.57,27.36-47.29,24.84,42.92L418.82,534.63ZM552.77,429.87,532.16,465.5l-37.73,65.18h-52l92.34-159.54L488.6,291.43h0L412.06,159.17h49.67l123.85,214Z"/><polygon points="365.56 202.43 241.31 202.43 179.18 310.03 241.31 417.64 365.56 417.64 427.69 310.03 365.56 202.43"/></g></g></svg>